PathFileType	4	(X/Y/Z)	Patient4_TMGait_0pt2_03_left_17.trc.trc
DataRate	CameraRate	NumFrames	NumMarkers	Units	OrigDataRate	OrigDataStartFrame	OrigNumFrames
47.138047138047	47.138047138047	5	33	mm	47.138047138047	71	       141
Frame#	Time	Sacral			L.Shoulder			Chest			R.Shoulder			Neck			R.ASIS			L.ASIS			R.Thigh.Superior			R.Thigh.Lateral			R.Thigh.Inferior			R.Patella			L.Thigh.Superior			L.Thigh.Lateral			L.Thigh.Inferior			L.Patella			L.Shank.Superior			L.Shank.Lateral			L.Shank.Inferior			R.Shank.Superior			R.Shank.Lateral			R.Shank.Inferior			R.Heel			R.Midfoot.Superior			R.Midfoot.Lateral			R.Toe			L.Heel			L.Midfoot.Lateral			L.Midfoot.Superior			L.Toe			L.Elbow			L.Wrist			R.Elbow			R.Wrist			
		X1	Y1	Z1	X2	Y2	Z2	X3	Y3	Z3	X4	Y4	Z4	X5	Y5	Z5	X6	Y6	Z6	X7	Y7	Z7	X8	Y8	Z8	X9	Y9	Z9	X10	Y10	Z10	X11	Y11	Z11	X12	Y12	Z12	X13	Y13	Z13	X14	Y14	Z14	X15	Y15	Z15	X16	Y16	Z16	X17	Y17	Z17	X18	Y18	Z18	X19	Y19	Z19	X20	Y20	Z20	X21	Y21	Z21	X22	Y22	Z22	X23	Y23	Z23	X24	Y24	Z24	X25	Y25	Z25	X26	Y26	Z26	X27	Y27	Z27	X28	Y28	Z28	X29	Y29	Z29	X30	Y30	Z30	X31	Y31	Z31	X32	Y32	Z32	X33	Y33	Z33	

71	36.905000000000	787.414790551545	1019.713562828551	405.588407064268	1031.490130739805	1440.086848598522	280.230399793319	1074.272996889056	1371.006021562640	461.772914594000	947.207799249201	1451.313857109574	603.872460287312	955.553122525928	1501.716190210988	424.137067172764	979.947741732027	950.423923483474	575.599260580668	1029.979508886097	965.058911708763	307.833611439975	1044.309961851567	758.587987082534	555.653449108057	974.078982883869	645.715332500495	620.397961678098	1061.188581584689	596.320251281227	547.725690827531	1077.969034592106	509.980495593716	564.242269457150	1038.868215431483	737.380347252337	337.311703856478	936.861669353424	621.342757073879	258.555554757264	1009.947242025063	546.465618613949	334.753900715085	999.468474507692	479.122105550640	342.832444433428	968.952126278750	409.718493890330	332.580399761383	874.267554578190	300.989186984263	279.830493633700	911.440575379527	187.900586575720	354.405639737397	1049.781684999999	421.229152057097	577.313488674567	980.017052975279	321.614339060499	649.246738894438	1029.605055199981	221.875496707358	598.550035495227	902.538250751369	50.157101057978	584.807876390946	1076.654867020336	105.668843560371	615.248591854814	990.172958447868	40.508783273588	654.349536303661	1196.723674736021	55.372567727440	634.864612184862	773.962589885011	38.301321526647	399.537545896242	844.434207971032	35.368883998154	315.295319138779	929.947074330199	95.432625585544	339.776403081193	1056.566650091272	41.513986770947	304.187489983333	1186.677272233179	1149.276926049844	137.776622660317	1428.914044352783	1207.640135863554	200.258949368418	750.720339686710	1162.318538739574	665.125779965899	686.219265473174	907.239203577289	656.520792235073	
72	36.926214285714	788.234947430548	1018.694230062210	409.690348338465	1031.963344064911	1438.490578082318	283.857047171570	1075.054635242505	1369.879614182418	465.475462612261	948.494719796795	1450.757324358364	607.643929825824	956.384726115116	1500.687449343981	427.574999582934	980.631922759603	948.602151787725	579.427198725782	1030.676906362387	964.174220169601	311.670626549018	1043.282707946054	755.195085182411	558.937434389796	971.097595250481	642.730233683223	622.257824478695	1058.136036049880	593.403035460748	549.496895610255	1073.181361686840	508.103257589665	564.498817437782	1038.781746022182	736.355917097808	339.966991719233	935.909167487431	621.278123432565	260.865800663846	1008.486236431496	545.577412317214	336.574209264106	997.481975283735	478.339506806177	344.383161901067	966.571648106807	409.204399731579	333.945768836421	871.144527977934	301.292780234273	280.811413837898	907.785647189779	187.645861697800	354.765237488304	1047.326644530084	418.896986156291	577.600978110405	979.913852370544	317.634456501549	649.647116461604	1030.502250574084	218.991627468710	597.733279752500	905.683205120858	46.568890226940	583.974048895764	1079.158248147785	103.133753762394	613.600496466059	993.346688087993	38.022785942068	653.481326491495	1199.721752550778	53.707762314739	633.393354053717	769.669975410588	38.309658355472	399.557636136839	840.157623531677	35.355227862464	315.304522254022	925.681157465919	95.410846714061	339.799022852203	1052.290610776089	41.456944104713	304.167593036316	1189.452076592203	1148.678869081779	142.937024189083	1429.608946502572	1214.400602946191	204.356004429405	753.300907539036	1160.852372013788	669.608590626728	689.632654304702	905.408936136388	660.751965384887	
73	36.947428571429	789.240491559612	1017.758710540423	414.298369426275	1032.289130190047	1437.070798710236	287.806733475206	1075.985714121384	1368.878141918265	469.443690788554	950.043357004550	1450.196474671285	611.847376907953	957.220182973704	1499.735548828991	431.453619786300	981.793798731699	946.879420215659	583.436818463873	1031.434735093174	963.456656904769	315.647990367939	1043.082083084857	752.153864081840	561.932968837605	969.320328025573	639.963631140408	623.945079122855	1056.240144748426	590.798920629644	550.969169909142	1069.477975048281	506.140366266373	564.593164926806	1038.818145655685	735.371951323950	342.665356097937	934.904431827986	621.282908247210	263.411581934264	1007.060382470590	544.727268562745	338.525345119590	995.572537254700	477.600473905138	346.075962091200	964.212110331126	408.754794429822	335.442748519410	867.980036698140	301.716820314631	281.907666982660	904.125619647417	187.445272077588	355.141792266604	1045.190430272886	416.589766306100	577.703984412285	979.264136325842	314.409238890695	649.734143872421	1029.862847605328	216.513866796152	596.639317104577	905.920969937258	44.399464476047	582.733084615313	1078.871787548247	101.127340652569	611.846129088388	993.367232545043	36.681039645044	652.457498763187	1199.615043138366	52.003810584940	632.278886293078	765.372224788183	38.351041979786	399.569908080549	835.881832304574	35.358467794231	315.320858272270	921.423951338171	95.405122343232	339.799910609045	1048.006851116052	41.394097674314	304.138191150150	1191.360869051065	1147.904530752366	148.070816058122	1429.700943376450	1219.265532219122	208.388172011296	756.250455920612	1159.357499954062	675.097983922708	693.636716175709	903.524992735812	666.441449606235	
74	36.968642857143	790.396106784682	1016.995690486793	419.354864791071	1032.544450275876	1435.891865599682	292.027211245700	1077.074195922713	1368.052940079592	473.629454001869	951.843169666396	1449.708645780470	616.402851443337	958.097630142126	1498.928951815758	435.705123714675	983.374298169482	945.375445746996	587.610981539789	1032.212018505024	962.927001309097	319.748314551957	1043.599960239394	749.568674444648	564.691210126603	968.681004814857	637.558369363305	625.634197387517	1055.345845464641	588.584161176089	552.273851349717	1066.830580297651	504.223613403219	564.717281049806	1038.846335008932	734.448033363614	345.438943122147	933.724388132101	621.395148920173	266.173283359136	1005.528361061565	543.949108364674	340.599319407992	993.585511145796	476.946866725814	347.895997908672	961.760634343535	408.418369535435	337.051046228905	864.695603625428	302.277660453130	283.111570933633	900.421815365315	187.328007413997	355.530194771958	1043.410494593283	414.424552089914	577.794313584467	978.242485580751	311.893664415072	649.732191180089	1028.034953454488	214.425491601730	595.497509606023	903.824958081607	43.288137068982	581.382606554481	1076.383686324108	99.617580754028	610.208763256321	990.926545361420	36.164044174590	651.475306584499	1197.134908372500	50.393825138829	631.542706039350	761.075124516380	38.437730928989	399.571656191927	831.610529176735	35.388115468986	315.346072717211	917.180717596793	95.419964113928	339.778517759175	1043.717251235970	41.323122583991	304.101332364670	1192.452887877141	1146.976796185247	153.149873555248	1429.339456009642	1222.415120668412	212.374159990909	759.450923614449	1158.032385424119	681.471009197440	698.028980778299	901.807156384438	673.446352748972	
75	36.989857142857	791.654325821358	1016.458554850380	424.801287286566	1032.791781793497	1434.983962923472	296.455570193122	1078.321178160760	1367.422536185690	477.970817294612	953.887068075676	1449.338979345702	621.224028155698	959.050265289350	1498.307198469336	440.250455041065	985.296936777390	944.170911481201	591.930480885414	1032.956376819268	962.575556188044	323.949723654500	1044.673084743405	747.489496427106	567.295853869761	969.029890048961	635.599954023365	627.493740419868	1055.232947867956	586.787755122676	553.546940099297	1065.123173510413	502.453855328363	565.038362910132	1038.750149548064	733.599436609590	348.321123901191	932.284995067713	621.637273309360	269.128464848153	1003.796340486176	543.269633868193	342.785173986458	991.419935304081	476.409035090326	349.825034268347	959.147659451287	408.226736724410	338.749544220416	861.245576419609	302.983499807035	284.415202831354	896.653674866790	187.314794316605	355.927063372538	1041.974975493403	412.489648757282	578.020706402873	977.006559676439	310.007357082904	649.827996869813	1025.385720871811	212.704797685985	594.497473520695	900.043833500296	42.905601436148	580.155634680711	1072.343073601285	98.549143616244	608.850218269695	986.770245106671	36.177028264111	650.672597261077	1193.033878901372	48.966082069160	631.157476896664	756.785601354170	38.585263911592	399.560475933696	827.348905062667	35.455943519998	315.380931634228	912.958318724158	95.459618725322	339.736512196228	1039.425400858157	41.240154805373	304.059790255534	1192.800423682612	1145.899204944229	158.163685127640	1428.664096002583	1224.008630670605	216.324220051779	762.829456615813	1156.998040398803	688.581597861265	702.658836629625	900.394267163447	681.563757409381	
